<?xml version="1.0" encoding="utf-8"?>
<svg width="512px" height="417.64844px" viewBox="0 0 512 417.64844" version="1.1" xmlns:xlink="http://www.w3.org/1999/xlink" xmlns="http://www.w3.org/2000/svg">
  <g id="Groupes-8">
    <g id="EliteTraining" transform="translate(0 299.64844)">
      <g id="Elite" fill="#FFFFFF">
        <path d="M105.487 26.2759C105.487 29.9673 102.499 32.9116 98.6318 32.9116C94.7646 32.9116 91.7764 29.9673 91.7764 26.2759C91.7764 22.5405 94.7646 19.6401 98.6318 19.6401C102.499 19.6401 105.487 22.5405 105.487 26.2759ZM61.7178 74.2202L32.9775 74.2202L32.9775 58.2241L60.0918 58.2241L60.0918 48.0288L32.9775 48.0288L32.9775 32.7358L61.7178 32.7358L61.7178 21.7935L19.7061 21.7935L19.7061 85.2065L61.7178 85.2065L61.7178 74.2202ZM70.5068 85.2065L83.3389 85.2065L83.3389 21.7935L70.5068 21.7935L70.5068 85.2065ZM117.001 27.2427L117.001 38.0972L110.365 38.0972L110.365 47.7651L117.001 47.7651L117.001 72.5063C117.001 81.6909 121.308 85.3823 132.382 85.3823C134.975 85.3823 137.172 85.1626 138.49 84.855L138.49 75.4067C137.699 75.5386 136.513 75.6265 135.37 75.6265C131.591 75.6265 129.833 73.9126 129.833 70.3091L129.833 47.7651L138.534 47.7651L138.534 38.0972L129.833 38.0972L129.833 27.2427L117.001 27.2427ZM167.274 76.7251C171.977 76.7251 175.58 74.396 176.767 70.7925L188.544 70.7925C187.138 80.021 178.7 86.2173 167.055 86.2173C152.553 86.2173 143.852 76.9448 143.852 61.8716C143.852 46.8423 152.641 37.0864 166.571 37.0864C180.282 37.0864 188.939 46.3589 188.939 60.6851L188.939 64.5962L156.464 64.5962L156.464 65.3872C156.464 72.1108 160.727 76.7251 167.274 76.7251ZM105.048 38.0972L105.048 85.2065L92.2158 85.2065L92.2158 38.0972L105.048 38.0972ZM176.591 56.73C176.327 50.7095 172.416 46.5786 166.703 46.5786C161.078 46.5786 157.035 50.8413 156.596 56.73L176.591 56.73Z" />
      </g>
      <g id="Training" fill="#FFFFFF">
        <path d="M221.459 28.9126L221.459 85.2065L213.549 85.2065L213.549 28.9126L193.554 28.9126L193.554 21.7935L241.454 21.7935L241.454 28.9126L221.459 28.9126ZM330.531 27.0669C330.531 29.6597 328.378 31.813 325.741 31.813C323.148 31.813 320.995 29.6597 320.995 27.0669C320.995 24.4302 323.148 22.3208 325.741 22.3208C328.378 22.3208 330.531 24.4302 330.531 27.0669ZM396.317 27.0669C396.317 29.6597 394.164 31.813 391.527 31.813C388.935 31.813 386.781 29.6597 386.781 27.0669C386.781 24.4302 388.935 22.3208 391.527 22.3208C394.164 22.3208 396.317 24.4302 396.317 27.0669ZM256.264 85.2065L248.617 85.2065L248.617 39.5034L255.824 39.5034L255.824 46.9741L256 46.9741C257.494 41.9204 261.713 38.7124 267.074 38.7124C268.393 38.7124 269.535 38.9321 270.15 39.02L270.15 46.4468C269.535 46.2271 267.909 46.0073 266.063 46.0073C260.131 46.0073 256.264 50.27 256.264 56.73L256.264 85.2065ZM289.706 85.9976C295.858 85.9976 301.659 82.5698 304.384 77.3403L304.56 77.3403L304.56 85.2065L311.811 85.2065L311.811 53.6099C311.811 44.5132 305.043 38.7124 294.32 38.7124C283.51 38.7124 276.742 44.7769 276.215 52.687L283.598 52.687C284.564 48.2046 288.256 45.436 294.145 45.436C300.473 45.436 304.164 48.7759 304.164 54.3569L304.164 58.1802L291.068 58.9272C280.521 59.5425 274.501 64.4644 274.501 72.2866C274.501 80.5044 280.609 85.9976 289.706 85.9976ZM339.892 85.2065L347.538 85.2065L347.538 58.312C347.538 50.5776 352.24 45.48 359.447 45.48C366.479 45.48 369.95 49.5229 369.95 56.9058L369.95 85.2065L377.597 85.2065L377.597 55.5435C377.597 45.1724 371.796 38.7124 361.776 38.7124C354.701 38.7124 349.823 41.8765 347.274 46.7983L347.099 46.7983L347.099 39.5034L339.892 39.5034L339.892 85.2065ZM405.678 85.2065L413.324 85.2065L413.324 58.312C413.324 50.5776 418.026 45.48 425.233 45.48C432.265 45.48 435.736 49.5229 435.736 56.9058L435.736 85.2065L443.383 85.2065L443.383 55.5435C443.383 45.1724 437.582 38.7124 427.563 38.7124C420.487 38.7124 415.609 41.8765 413.061 46.7983L412.885 46.7983L412.885 39.5034L405.678 39.5034L405.678 85.2065ZM492.602 84.2837C492.602 95.1821 484.56 102.433 471.947 102.433C461.884 102.433 453.93 96.7642 452.655 88.9858L460.521 88.9858C462.016 93.1606 466.542 95.9292 472.255 95.9292C480.165 95.9292 484.955 91.3589 484.955 84.5474L484.955 77.3403L484.779 77.3403C481.967 82.3062 476.562 85.5581 470.146 85.5581C458.5 85.5581 450.854 76.3735 450.854 62.1792C450.854 47.853 458.5 38.7124 470.321 38.7124C476.781 38.7124 482.143 41.8765 485.175 47.1938L485.307 47.1938L485.307 39.5034L492.602 39.5034L492.602 84.2837ZM329.564 39.5034L329.564 85.2065L321.918 85.2065L321.918 39.5034L329.564 39.5034ZM395.351 39.5034L395.351 85.2065L387.704 85.2065L387.704 39.5034L395.351 39.5034ZM458.676 62.1792C458.676 72.4185 463.817 78.8345 471.684 78.8345C479.638 78.8345 484.955 72.2427 484.955 62.1792C484.955 52.1157 479.638 45.436 471.684 45.436C463.817 45.436 458.676 51.9399 458.676 62.1792ZM291.42 79.4937C285.927 79.4937 282.279 76.6372 282.279 72.2866C282.279 67.98 285.795 65.2554 291.947 64.8599L304.164 64.1128L304.164 67.8481C304.164 74.4399 298.627 79.4937 291.42 79.4937Z" />
      </g>
    </g>
    <g id="Groupes" transform="translate(0.6040039 0)">
      <path d="M170.196 0L472.69 0L408.232 64.4723L106.495 64.4723L170.196 0Z" id="Rectangle" fill="#8BC34A" fill-rule="evenodd" stroke="none" />
      <path d="M63.7004 101.82L289.593 101.835L225.135 166.293L0 166.293L63.7004 101.82Z" id="Rectangle-5" fill="#FFFFFF" fill-rule="evenodd" stroke="none" />
      <path d="M129.286 196.186L379.273 196.172L314.919 260.644L65.3918 260.644L129.286 196.186Z" id="Rectangle-3" fill="#8BC34A" fill-rule="evenodd" stroke="none" />
    </g>
  </g>
</svg>